HIERARCHY
ROOT Hips
{
    OFFSET 0.0 0.0 0.0
    CHANNELS 6 Xposition Yposition Zposition Zrotation Xrotation Yrotation
    JOINT LHipJoint
    {
        OFFSET 0.1 0.0 0.0
        CHANNELS 3 Zrotation Xrotation Yrotation
        JOINT LeftHip
        {
            OFFSET 0.1697809249162674 0.0 0.0
            CHANNELS 3 Zrotation Xrotation Yrotation
            JOINT LeftKnee
            {
                OFFSET 0.0 0.0 -0.31428951025009155
                CHANNELS 3 Zrotation Xrotation Yrotation
                JOINT LeftAnkle
                {
                    OFFSET 0.0 0.0 -0.5130666494369507
                    CHANNELS 3 Zrotation Xrotation Yrotation
                    End Site
                    {
                        OFFSET 0.0 -0.1 0.0
                    }
                }
            }
        }
    }
    JOINT lowerback
    {
        OFFSET 0.0 0.0 0.1
        CHANNELS 3 Zrotation Xrotation Yrotation
        JOINT Chest
        {
            OFFSET 0.0 0.0 0.2723461091518402
            CHANNELS 3 Zrotation Xrotation Yrotation
            JOINT Chest2
            {
                OFFSET 0.0 0.0 0.31228214502334595
                CHANNELS 3 Zrotation Xrotation Yrotation
                JOINT LeftCollar
                {
                    OFFSET 0.1 0.0 0.0
                    CHANNELS 3 Zrotation Xrotation Yrotation
                    JOINT LeftShoulder
                    {
                        OFFSET 0.2186739444732666 0.0 0.0
                        CHANNELS 3 Zrotation Xrotation Yrotation
                        JOINT LeftElbow
                        {
                            OFFSET 0.2778531610965729 0.0 0.0
                            CHANNELS 3 Zrotation Xrotation Yrotation
                            JOINT LeftWrist
                            {
                                OFFSET 0.3733416497707367 0.0 0.0
                                CHANNELS 3 Zrotation Xrotation Yrotation
                                End Site
                                {
                                    OFFSET 0.1 0.0 0.0
                                }
                            }
                        }
                    }
                }
                JOINT Neck
                {
                    OFFSET 0.0 0.0 0.1
                    CHANNELS 3 Zrotation Xrotation Yrotation
                    JOINT Head
                    {
                        OFFSET 0.0 0.0 0.2967161536216736
                        CHANNELS 3 Zrotation Xrotation Yrotation
                        End Site
                        {
                            OFFSET 0.0 0.0 0.1692984402179718
                        }
                    }
                }
                JOINT RightCollar
                {
                    OFFSET -0.1 0.0 0.0
                    CHANNELS 3 Zrotation Xrotation Yrotation
                    JOINT RightShoulder
                    {
                        OFFSET -0.2186739444732666 0.0 0.0
                        CHANNELS 3 Zrotation Xrotation Yrotation
                        JOINT RightElbow
                        {
                            OFFSET -0.2778531610965729 0.0 0.0
                            CHANNELS 3 Zrotation Xrotation Yrotation
                            JOINT RightWrist
                            {
                                OFFSET -0.3733416497707367 0.0 0.0
                                CHANNELS 3 Zrotation Xrotation Yrotation
                                End Site
                                {
                                    OFFSET -0.1 0.0 0.0
                                }
                            }
                        }
                    }
                }
            }
        }
    }
    JOINT RHipJoint
    {
        OFFSET -0.1 0.0 0.0
        CHANNELS 3 Zrotation Xrotation Yrotation
        JOINT RightHip
        {
            OFFSET -0.1697809249162674 0.0 0.0
            CHANNELS 3 Zrotation Xrotation Yrotation
            JOINT RightKnee
            {
                OFFSET 0.0 0.0 -0.31428951025009155
                CHANNELS 3 Zrotation Xrotation Yrotation
                JOINT RightAnkle
                {
                    OFFSET 0.0 0.0 -0.5130666494369507
                    CHANNELS 3 Zrotation Xrotation Yrotation
                    End Site
                    {
                        OFFSET 0.0 -0.1 0.0
                    }
                }
            }
        }
    }
}
MOTION
Frames: 4
Frame Time: 0.06666666666666667
-2.1326268324628472e-05 0.20581738650798798 -9.252573363482952e-05 -33.03192602463794 -3.20842338782152 -26.858132011308342 8.276074308844047e-33 7.95138670365879e-16 -1.1927080055488184e-15 -178.9594572410465 -1.1369036854286192 -95.53872400846859 -178.5641321396038 -1.7712963935946875 -121.28356276434228 -3.1805546814635176e-15 1.5448672043175555e-31 -5.565970692561156e-15 8.276074308844047e-33 7.95138670365879e-16 -1.1927080055488184e-15 10.00316724303836 9.689523955082189 -10.430429520669486 12.724520214032669 1.515406849924907e-06 -7.52281790837334e-07 -2.5862732215137646e-32 1.1927080055488188e-15 2.4848083448933726e-15 75.93914115304159 -54.84078479173766 -74.85947331151806 -138.6586840474823 1.7440900895462428e-06 1.4684899251327925e-06 1.987846675914698e-15 4.827710013492361e-32 2.782985346280577e-15 -2.5862732215137646e-32 1.1927080055488188e-15 2.4848083448933726e-15 91.10176756622954 -67.37937627512115 79.77964859699878 -2.5862732215137646e-32 1.1927080055488188e-15 2.4848083448933726e-15 109.74097958433231 -25.53551047098378 142.64100518803784 115.77536524922515 -3.948315226295809e-06 -1.4871638492855284e-06 -1.5902773407317584e-15 -1.1034765745125397e-32 7.951386703658792e-16 8.276074308844047e-33 7.95138670365879e-16 -1.1927080055488184e-15 -179.56666376429828 -0.31300308142411165 -92.67154803851408 173.05644709218828 7.706651308942286 -145.2109795903154 6.361109362927033e-15 1.7655625192200634e-31 3.1805546814635164e-15
-2.4182860215660185e-05 0.20578444004058838 -9.26082138903439e-05 -28.745580718653972 -6.424467669975659 -26.87074010810398 0.0 0.0 -3.975693351829397e-16 175.32498480282214 4.917381249072555 -97.68610800474953 -175.50095463477552 -5.463626312484178 -123.28045296938151 0.0 0.0 -3.578124016646457e-15 0.0 0.0 -3.975693351829397e-16 9.071704264290569 9.65800984640525 -10.648493871350516 8.668391735313786 8.27856555768208e-07 4.0092685265661105e-06 0.0 0.0 -2.9817700138720468e-15 64.3769601388633 -57.596573784673886 -85.1706555923563 -127.16934706539614 4.564322442987342e-06 2.2175195427147297e-06 -4.4139062980501586e-32 6.3611093629270335e-15 7.951386703658792e-16 0.0 0.0 -2.9817700138720468e-15 68.48933753503266 -76.19304198891074 60.193420186584426 0.0 0.0 -2.9817700138720468e-15 93.47680111030937 -17.960396098475073 140.36078504472673 94.23559891992004 2.1292242849326752e-07 5.868899853109877e-06 0.0 0.0 3.1805546814635168e-15 0.0 0.0 -3.975693351829397e-16 -178.85669795857126 -1.1111137709560466 -90.72984821983907 173.51106692945015 6.144121625385065 -129.92188166491178 0.0 -4.770832022195275e-15 0.0
-1.7329224647255614e-05 0.20575788617134094 -8.647680806461722e-05 -23.00030255397909 -9.601798446334755 -28.701272071192218 -1.1034765745125397e-32 1.5902773407317582e-15 7.951386703658791e-16 169.32462793889954 12.068318845806326 -98.92664559440826 -172.50921333432353 -9.039477462840793 -122.99415490189554 -2.2069531490250793e-32 1.5902773407317584e-15 1.5902773407317584e-15 -1.1034765745125397e-32 1.5902773407317582e-15 7.951386703658791e-16 10.383402008730247 11.84912566244024 -8.468314419093936 2.73673013075605 -3.2832486664723073e-07 1.2654346627592237e-06 0.0 0.0 2.0872390097104326e-15 59.44214629884607 -62.09598550150576 -87.65969512044322 -119.91289741049157 -1.280559565032591e-06 2.452904272995559e-06 2.648343778830095e-31 6.361109362927032e-15 -4.7708320221952736e-15 0.0 0.0 2.0872390097104326e-15 77.59149180602714 -80.81914936782613 73.8470707123841 0.0 0.0 2.0872390097104326e-15 70.49587187731058 -20.598665817890247 149.99052609670576 73.52096942822922 -2.5731176874754107e-06 9.868017296348834e-07 1.5902773407317584e-15 7.58640144977371e-32 5.466578358765419e-15 -1.1034765745125397e-32 1.5902773407317582e-15 7.951386703658791e-16 -177.68797849036426 -2.558532919454416 -91.43949416531612 175.83601263276313 3.7665064881055064 -117.49055947180406 0.0 0.0 -7.156248033292914e-15
-6.103960913605988e-06 0.20574748516082764 -8.015579078346491e-05 -19.02428259861485 -12.721341934609043 -31.053592864328152 -1.5902773407317582e-15 -2.385416011097637e-15 -1.1927080055488186e-15 165.6190603279438 17.533066727739012 -99.8764299002537 -168.46191704613778 -13.435829704104528 -121.18266560516139 1.5902773407317584e-15 3.1805546814635168e-15 2.3854160110976376e-15 -1.5902773407317582e-15 -2.385416011097637e-15 -1.1927080055488186e-15 13.621271439978983 16.768839431364626 -9.227582440734425 -2.804896289602998 -2.5458008894460394e-07 1.6508680420517222e-07 -9.939233379573492e-17 -3.851452934584727e-16 -5.159083326084865e-15 46.76144938062915 -65.21915893522679 -93.35729681340403 -119.23555950610329 8.915723950661872e-07 -1.936357103282672e-06 1.590277340731758e-15 1.5902773407317584e-15 7.95138670365879e-15 -9.939233379573492e-17 -3.851452934584727e-16 -5.159083326084865e-15 107.16114219835411 -82.85578064073412 110.48938154141372 -9.939233379573492e-17 -3.851452934584727e-16 -5.159083326084865e-15 37.25841408258981 -53.38850708280361 159.72952337921703 59.64386592462476 2.9744418616331164e-06 -2.9796943101392733e-06 -1.5902773407317584e-15 1.5902773407317584e-15 2.3854160110976376e-15 -1.5902773407317582e-15 -2.385416011097637e-15 -1.1927080055488186e-15 -170.23250689569196 -12.10446941530518 -90.15248894422028 178.15084404666123 1.5089339480176782 -107.98451224393952 7.951386703658792e-16 1.987846675914698e-16 -8.448348372637467e-16
